<?xml version="1.0" standalone="no"?><!DOCTYPE svg PUBLIC "-//W3C//DTD SVG 1.1//EN" "http://www.w3.org/Graphics/SVG/1.1/DTD/svg11.dtd"><svg t="1653376698603" class="icon" viewBox="0 0 1024 1024" version="1.1" xmlns="http://www.w3.org/2000/svg" p-id="8463" xmlns:xlink="http://www.w3.org/1999/xlink" width="200" height="200"><defs><style type="text/css">@font-face { font-family: feedback-iconfont; src: url("//at.alicdn.com/t/font_1031158_u69w8yhxdu.woff2?t=1630033759944") format("woff2"), url("//at.alicdn.com/t/font_1031158_u69w8yhxdu.woff?t=1630033759944") format("woff"), url("//at.alicdn.com/t/font_1031158_u69w8yhxdu.ttf?t=1630033759944") format("truetype"); }
</style></defs><path d="M863.7 368.53l-9.1-9.53c-19.92-20.82-37.29-46.25-57.22-25.44L549.29 592.11a32.63 32.63 0 0 0-8.68 18.15l-18.69 88.91c-2 7.24 1.93 14.84 8.85 17a12.49 12.49 0 0 0 7.46 0l85.27-19.72a30.14 30.14 0 0 0 17.32-9L888.9 428.88c19.93-20.81-5.28-39.53-25.2-60.35z" p-id="8464"></path><path d="M671.33 792.22H227V227h444.33v144.7l64-58.7V163H163v693.22h572.33c0.36-67.6 0.71-115.19 1.06-182.79q-32.52 33.51-65.06 67z" p-id="8465"></path><path d="M292.41 351.79m7.45 0l268.8 0q7.45 0 7.45 7.45l0 49.1q0 7.45-7.45 7.45l-268.8 0q-7.45 0-7.45-7.45l0-49.1q0-7.45 7.45-7.45Z" p-id="8466"></path><path d="M292.41 494.18m7.45 0l200.93 0q7.45 0 7.45 7.45l0 49.1q0 7.45-7.45 7.45l-200.93 0q-7.45 0-7.45-7.45l0-49.1q0-7.45 7.45-7.45Z" p-id="8467"></path></svg>